# xmcd CD database file
#
# Track frame offsets:
#	150
#	19284
#	38853
#	57987
#
# Disc length: 1030 seconds
#
# Revision: 0
# Processed by: cddbd v1.5.1PL0 Copyright (c) Steve Scherf et al.
# Submitted via: CDex 1.50beta10
#
DISCID=2f040404
DTITLE=栗林みな実 - Blue treasure
DYEAR=1900
DGENRE=Vocal
TTITLE0=Blue treasure
TTITLE1=人魚姫
TTITLE2=Blue treasure (off vocal)
TTITLE3=人魚姫 (off vocal)
EXTD=
EXTT0=
EXTT1=
EXTT2=
EXTT3=
PLAYORDER=
